# superquadric bank seed 13013 index 65 (heldout): a1 36.285 a2 22.490 a3 135.805 mm, e1 0.6911 e2 0.4659
# units: metres, Unity frame (y = length axis); faces are triangles, Unity-clockwise front faces
v 0.0000000 -0.1358053 0.0000000
v 0.0186821 -0.1285740 0.0000000
v 0.0180056 -0.1285740 0.0074019
v 0.0158965 -0.1285740 0.0098530
v 0.0119419 -0.1285740 0.0111603
v 0.0000000 -0.1285740 0.0115796
v -0.0119419 -0.1285740 0.0111603
v -0.0158965 -0.1285740 0.0098530
v -0.0180056 -0.1285740 0.0074019
v -0.0186821 -0.1285740 0.0000000
v -0.0180056 -0.1285740 -0.0074019
v -0.0158965 -0.1285740 -0.0098530
v -0.0119419 -0.1285740 -0.0111603
v -0.0000000 -0.1285740 -0.0115796
v 0.0119419 -0.1285740 -0.0111603
v 0.0158965 -0.1285740 -0.0098530
v 0.0180056 -0.1285740 -0.0074019
v 0.0285566 -0.1068797 0.0000000
v 0.0275224 -0.1068797 0.0113141
v 0.0242986 -0.1068797 0.0150609
v 0.0182538 -0.1068797 0.0170590
v 0.0000000 -0.1068797 0.0177000
v -0.0182538 -0.1068797 0.0170590
v -0.0242986 -0.1068797 0.0150609
v -0.0275224 -0.1068797 0.0113141
v -0.0285566 -0.1068797 0.0000000
v -0.0275224 -0.1068797 -0.0113141
v -0.0242986 -0.1068797 -0.0150609
v -0.0182538 -0.1068797 -0.0170590
v -0.0000000 -0.1068797 -0.0177000
v 0.0182538 -0.1068797 -0.0170590
v 0.0242986 -0.1068797 -0.0150609
v 0.0275224 -0.1068797 -0.0113141
v 0.0343529 -0.0699224 0.0000000
v 0.0331089 -0.0699224 0.0136107
v 0.0292307 -0.0699224 0.0181179
v 0.0219589 -0.0699224 0.0205217
v 0.0000000 -0.0699224 0.0212928
v -0.0219589 -0.0699224 0.0205217
v -0.0292307 -0.0699224 0.0181179
v -0.0331089 -0.0699224 0.0136107
v -0.0343529 -0.0699224 0.0000000
v -0.0331089 -0.0699224 -0.0136107
v -0.0292307 -0.0699224 -0.0181179
v -0.0219589 -0.0699224 -0.0205217
v -0.0000000 -0.0699224 -0.0212928
v 0.0219589 -0.0699224 -0.0205217
v 0.0292307 -0.0699224 -0.0181179
v 0.0331089 -0.0699224 -0.0136107
v 0.0362850 0.0000000 0.0000000
v 0.0349710 0.0000000 0.0143762
v 0.0308747 0.0000000 0.0191369
v 0.0231939 0.0000000 0.0216758
v 0.0000000 0.0000000 0.0224903
v -0.0231939 0.0000000 0.0216758
v -0.0308747 0.0000000 0.0191369
v -0.0349710 0.0000000 0.0143762
v -0.0362850 0.0000000 0.0000000
v -0.0349710 0.0000000 -0.0143762
v -0.0308747 0.0000000 -0.0191369
v -0.0231939 0.0000000 -0.0216758
v -0.0000000 0.0000000 -0.0224903
v 0.0231939 0.0000000 -0.0216758
v 0.0308747 0.0000000 -0.0191369
v 0.0349710 0.0000000 -0.0143762
v 0.0343529 0.0699224 0.0000000
v 0.0331089 0.0699224 0.0136107
v 0.0292307 0.0699224 0.0181179
v 0.0219589 0.0699224 0.0205217
v 0.0000000 0.0699224 0.0212928
v -0.0219589 0.0699224 0.0205217
v -0.0292307 0.0699224 0.0181179
v -0.0331089 0.0699224 0.0136107
v -0.0343529 0.0699224 0.0000000
v -0.0331089 0.0699224 -0.0136107
v -0.0292307 0.0699224 -0.0181179
v -0.0219589 0.0699224 -0.0205217
v -0.0000000 0.0699224 -0.0212928
v 0.0219589 0.0699224 -0.0205217
v 0.0292307 0.0699224 -0.0181179
v 0.0331089 0.0699224 -0.0136107
v 0.0285566 0.1068797 0.0000000
v 0.0275224 0.1068797 0.0113141
v 0.0242986 0.1068797 0.0150609
v 0.0182538 0.1068797 0.0170590
v 0.0000000 0.1068797 0.0177000
v -0.0182538 0.1068797 0.0170590
v -0.0242986 0.1068797 0.0150609
v -0.0275224 0.1068797 0.0113141
v -0.0285566 0.1068797 0.0000000
v -0.0275224 0.1068797 -0.0113141
v -0.0242986 0.1068797 -0.0150609
v -0.0182538 0.1068797 -0.0170590
v -0.0000000 0.1068797 -0.0177000
v 0.0182538 0.1068797 -0.0170590
v 0.0242986 0.1068797 -0.0150609
v 0.0275224 0.1068797 -0.0113141
v 0.0186821 0.1285740 0.0000000
v 0.0180056 0.1285740 0.0074019
v 0.0158965 0.1285740 0.0098530
v 0.0119419 0.1285740 0.0111603
v 0.0000000 0.1285740 0.0115796
v -0.0119419 0.1285740 0.0111603
v -0.0158965 0.1285740 0.0098530
v -0.0180056 0.1285740 0.0074019
v -0.0186821 0.1285740 0.0000000
v -0.0180056 0.1285740 -0.0074019
v -0.0158965 0.1285740 -0.0098530
v -0.0119419 0.1285740 -0.0111603
v -0.0000000 0.1285740 -0.0115796
v 0.0119419 0.1285740 -0.0111603
v 0.0158965 0.1285740 -0.0098530
v 0.0180056 0.1285740 -0.0074019
v 0.0000000 0.1358053 0.0000000
f 1 3 2
f 1 4 3
f 1 5 4
f 1 6 5
f 1 7 6
f 1 8 7
f 1 9 8
f 1 10 9
f 1 11 10
f 1 12 11
f 1 13 12
f 1 14 13
f 1 15 14
f 1 16 15
f 1 17 16
f 1 2 17
f 2 3 18
f 3 19 18
f 3 4 19
f 4 20 19
f 4 5 20
f 5 21 20
f 5 6 21
f 6 22 21
f 6 7 22
f 7 23 22
f 7 8 23
f 8 24 23
f 8 9 24
f 9 25 24
f 9 10 25
f 10 26 25
f 10 11 26
f 11 27 26
f 11 12 27
f 12 28 27
f 12 13 28
f 13 29 28
f 13 14 29
f 14 30 29
f 14 15 30
f 15 31 30
f 15 16 31
f 16 32 31
f 16 17 32
f 17 33 32
f 17 2 33
f 2 18 33
f 18 19 34
f 19 35 34
f 19 20 35
f 20 36 35
f 20 21 36
f 21 37 36
f 21 22 37
f 22 38 37
f 22 23 38
f 23 39 38
f 23 24 39
f 24 40 39
f 24 25 40
f 25 41 40
f 25 26 41
f 26 42 41
f 26 27 42
f 27 43 42
f 27 28 43
f 28 44 43
f 28 29 44
f 29 45 44
f 29 30 45
f 30 46 45
f 30 31 46
f 31 47 46
f 31 32 47
f 32 48 47
f 32 33 48
f 33 49 48
f 33 18 49
f 18 34 49
f 34 35 50
f 35 51 50
f 35 36 51
f 36 52 51
f 36 37 52
f 37 53 52
f 37 38 53
f 38 54 53
f 38 39 54
f 39 55 54
f 39 40 55
f 40 56 55
f 40 41 56
f 41 57 56
f 41 42 57
f 42 58 57
f 42 43 58
f 43 59 58
f 43 44 59
f 44 60 59
f 44 45 60
f 45 61 60
f 45 46 61
f 46 62 61
f 46 47 62
f 47 63 62
f 47 48 63
f 48 64 63
f 48 49 64
f 49 65 64
f 49 34 65
f 34 50 65
f 50 51 66
f 51 67 66
f 51 52 67
f 52 68 67
f 52 53 68
f 53 69 68
f 53 54 69
f 54 70 69
f 54 55 70
f 55 71 70
f 55 56 71
f 56 72 71
f 56 57 72
f 57 73 72
f 57 58 73
f 58 74 73
f 58 59 74
f 59 75 74
f 59 60 75
f 60 76 75
f 60 61 76
f 61 77 76
f 61 62 77
f 62 78 77
f 62 63 78
f 63 79 78
f 63 64 79
f 64 80 79
f 64 65 80
f 65 81 80
f 65 50 81
f 50 66 81
f 66 67 82
f 67 83 82
f 67 68 83
f 68 84 83
f 68 69 84
f 69 85 84
f 69 70 85
f 70 86 85
f 70 71 86
f 71 87 86
f 71 72 87
f 72 88 87
f 72 73 88
f 73 89 88
f 73 74 89
f 74 90 89
f 74 75 90
f 75 91 90
f 75 76 91
f 76 92 91
f 76 77 92
f 77 93 92
f 77 78 93
f 78 94 93
f 78 79 94
f 79 95 94
f 79 80 95
f 80 96 95
f 80 81 96
f 81 97 96
f 81 66 97
f 66 82 97
f 82 83 98
f 83 99 98
f 83 84 99
f 84 100 99
f 84 85 100
f 85 101 100
f 85 86 101
f 86 102 101
f 86 87 102
f 87 103 102
f 87 88 103
f 88 104 103
f 88 89 104
f 89 105 104
f 89 90 105
f 90 106 105
f 90 91 106
f 91 107 106
f 91 92 107
f 92 108 107
f 92 93 108
f 93 109 108
f 93 94 109
f 94 110 109
f 94 95 110
f 95 111 110
f 95 96 111
f 96 112 111
f 96 97 112
f 97 113 112
f 97 82 113
f 82 98 113
f 114 98 99
f 114 99 100
f 114 100 101
f 114 101 102
f 114 102 103
f 114 103 104
f 114 104 105
f 114 105 106
f 114 106 107
f 114 107 108
f 114 108 109
f 114 109 110
f 114 110 111
f 114 111 112
f 114 112 113
f 114 113 98
