# anchor: the scene object's mesh 'Cylinder' (88 vertices, 80 triangles) x transform scale (0.0500, 0.1400, 0.0500), exported by ObjectBank
# units: metres, Unity frame
v -0.0237764 -0.1400000 -0.0077254
v -0.0202254 -0.1400000 -0.0146946
v -0.0146946 -0.1400000 -0.0202254
v -0.0077254 -0.1400000 -0.0237764
v 0.0000000 -0.1400000 -0.0250000
v 0.0077254 -0.1400000 -0.0237764
v 0.0146946 -0.1400000 -0.0202254
v 0.0202254 -0.1400000 -0.0146946
v 0.0237764 -0.1400000 -0.0077254
v 0.0250000 -0.1400000 0.0000000
v 0.0237764 -0.1400000 0.0077254
v 0.0202254 -0.1400000 0.0146946
v 0.0146946 -0.1400000 0.0202254
v 0.0077254 -0.1400000 0.0237764
v 0.0000000 -0.1400000 0.0250000
v -0.0077254 -0.1400000 0.0237764
v -0.0146946 -0.1400000 0.0202254
v -0.0202254 -0.1400000 0.0146946
v -0.0237764 -0.1400000 0.0077254
v -0.0250000 -0.1400000 0.0000000
v -0.0237764 0.1400000 -0.0077254
v -0.0202254 0.1400000 -0.0146946
v -0.0146946 0.1400000 -0.0202254
v -0.0077254 0.1400000 -0.0237764
v 0.0000000 0.1400000 -0.0250000
v 0.0077254 0.1400000 -0.0237764
v 0.0146946 0.1400000 -0.0202254
v 0.0202254 0.1400000 -0.0146946
v 0.0237764 0.1400000 -0.0077254
v 0.0250000 0.1400000 0.0000000
v 0.0237764 0.1400000 0.0077254
v 0.0202254 0.1400000 0.0146946
v 0.0146946 0.1400000 0.0202254
v 0.0077254 0.1400000 0.0237764
v 0.0000000 0.1400000 0.0250000
v -0.0077254 0.1400000 0.0237764
v -0.0146946 0.1400000 0.0202254
v -0.0202254 0.1400000 0.0146946
v -0.0237764 0.1400000 0.0077254
v -0.0250000 0.1400000 0.0000000
v 0.0000000 -0.1400000 0.0000000
v 0.0000000 0.1400000 0.0000000
v 0.0250000 -0.1400000 0.0000000
v 0.0250000 0.1400000 0.0000000
v -0.0250000 -0.1400000 0.0000000
v -0.0250000 0.1400000 0.0000000
v -0.0237764 0.1400000 -0.0077254
v -0.0237764 -0.1400000 -0.0077254
v -0.0202254 -0.1400000 -0.0146946
v -0.0237764 -0.1400000 -0.0077254
v -0.0146946 -0.1400000 -0.0202254
v -0.0077254 -0.1400000 -0.0237764
v 0.0000000 -0.1400000 -0.0250000
v 0.0077254 -0.1400000 -0.0237764
v 0.0146946 -0.1400000 -0.0202254
v 0.0202254 -0.1400000 -0.0146946
v 0.0237764 -0.1400000 -0.0077254
v 0.0250000 -0.1400000 0.0000000
v 0.0237764 -0.1400000 0.0077254
v 0.0202254 -0.1400000 0.0146946
v 0.0146946 -0.1400000 0.0202254
v 0.0077254 -0.1400000 0.0237764
v 0.0000000 -0.1400000 0.0250000
v -0.0077254 -0.1400000 0.0237764
v -0.0146946 -0.1400000 0.0202254
v -0.0202254 -0.1400000 0.0146946
v -0.0237764 -0.1400000 0.0077254
v -0.0250000 -0.1400000 0.0000000
v -0.0237764 0.1400000 -0.0077254
v -0.0202254 0.1400000 -0.0146946
v -0.0146946 0.1400000 -0.0202254
v -0.0077254 0.1400000 -0.0237764
v 0.0000000 0.1400000 -0.0250000
v 0.0077254 0.1400000 -0.0237764
v 0.0146946 0.1400000 -0.0202254
v 0.0202254 0.1400000 -0.0146946
v 0.0237764 0.1400000 -0.0077254
v 0.0250000 0.1400000 0.0000000
v 0.0237764 0.1400000 0.0077254
v 0.0202254 0.1400000 0.0146946
v 0.0146946 0.1400000 0.0202254
v 0.0077254 0.1400000 0.0237764
v 0.0000000 0.1400000 0.0250000
v -0.0077254 0.1400000 0.0237764
v -0.0146946 0.1400000 0.0202254
v -0.0202254 0.1400000 0.0146946
v -0.0237764 0.1400000 0.0077254
v -0.0250000 0.1400000 0.0000000
f 1 21 22
f 1 22 2
f 2 22 23
f 2 23 3
f 3 23 24
f 3 24 4
f 4 24 25
f 4 25 5
f 5 25 26
f 5 26 6
f 6 26 27
f 6 27 7
f 7 27 28
f 7 28 8
f 8 28 29
f 8 29 9
f 9 29 30
f 9 30 10
f 43 44 31
f 43 31 11
f 11 31 32
f 11 32 12
f 12 32 33
f 12 33 13
f 13 33 34
f 13 34 14
f 14 34 35
f 14 35 15
f 15 35 36
f 15 36 16
f 16 36 37
f 16 37 17
f 17 37 38
f 17 38 18
f 18 38 39
f 18 39 19
f 19 39 40
f 19 40 20
f 45 46 47
f 45 47 48
f 87 42 88
f 86 42 87
f 88 42 69
f 85 42 86
f 69 42 70
f 84 42 85
f 70 42 71
f 83 42 84
f 71 42 72
f 82 42 83
f 72 42 73
f 81 42 82
f 73 42 74
f 80 42 81
f 74 42 75
f 79 42 80
f 75 42 76
f 78 42 79
f 76 42 77
f 77 42 78
f 68 41 67
f 50 41 68
f 67 41 66
f 49 41 50
f 66 41 65
f 51 41 49
f 65 41 64
f 52 41 51
f 64 41 63
f 53 41 52
f 63 41 62
f 54 41 53
f 62 41 61
f 55 41 54
f 61 41 60
f 56 41 55
f 60 41 59
f 57 41 56
f 59 41 58
f 58 41 57
